<?xml version="1.0" encoding="utf-8"?>
<!-- Generator: Adobe Illustrator 19.2.1, SVG Export Plug-In . SVG Version: 6.00 Build 0)  -->
<svg version="1.1" id="tbt-logo" xmlns="http://www.w3.org/2000/svg" xmlns:xlink="http://www.w3.org/1999/xlink" x="0px" y="0px"
   viewBox="0 0 200 200" style="enable-background:new 0 0 200 200;" xml:space="preserve">
  <g>
    <path d="M84.926,32.478c0-1.544,0.846-1.893,1.893-1.893h2.988c1.05,0,1.896,0.349,1.896,1.893V44.34h13.871V32.478
      c0-1.544,0.849-1.893,1.893-1.893h2.943c1.045,0,1.893,0.349,1.893,1.893v30.103c0,1.544-0.849,1.892-1.893,1.892h-2.943
      c-1.044,0-1.893-0.348-1.893-1.892V50.37H91.704v12.212c0,1.544-0.846,1.892-1.896,1.892H86.82c-1.047,0-1.893-0.348-1.893-1.892
      V32.478z"/>
    <path d="M141.4,32.478c0-1.544,0.846-1.893,1.893-1.893h17.668c1.544,0,1.893,0.847,1.893,1.893v2.245
      c0,1.045-0.349,1.893-1.893,1.893h-12.784v7.723h12.382c1.544,0,1.893,0.846,1.893,1.895v2.242c0,1.047-0.349,1.893-1.893,1.893
      h-12.382v8.074h12.784c1.544,0,1.893,0.846,1.893,1.893v2.244c0,1.045-0.349,1.892-1.893,1.892h-17.668
      c-1.047,0-1.893-0.348-1.893-1.892V32.478z"/>
    <path d="M32.181,84.223c0-1.544,0.847-1.893,1.893-1.893h10.118c7.226,0,10.964,3.637,10.964,9.219
      c0,3.737-2.094,5.83-4.536,6.977v0.099c2.991,0.698,5.631,3.44,5.631,7.676c0,6.229-4.785,9.918-11.761,9.918H34.075
      c-1.046,0-1.893-0.349-1.893-1.893V84.223z M43.044,96.284c3.189,0,5.334-1.394,5.334-4.187c0-2.79-1.994-3.986-4.733-3.986H38.96
      v8.174H43.044z M43.396,110.438c4.235,0,5.83-1.895,5.83-4.288c0-2.191-1.345-4.384-5.283-4.384H38.96v8.672H43.396z"/>
    <path d="M88.034,84.223c0-1.544,0.845-1.893,1.893-1.893h2.989c1.048,0,1.895,0.349,1.895,1.893v25.667h13.639
      c1.544,0,1.893,0.846,1.893,1.893v2.542c0,1.045-0.349,1.893-1.893,1.893H89.927c-1.048,0-1.893-0.349-1.893-1.893V84.223z"/>
    <path d="M140.988,84.223c0-1.544,0.849-1.893,1.893-1.893h2.991c1.047,0,1.893,0.349,1.893,1.893v14.004h0.05
      l9.768-14.302c0.696-0.996,1.494-1.596,2.642-1.596h4.636c0.595,0,1.095,0.197,1.095,0.797c0,0.198-0.151,0.549-0.349,0.799
      l-10.516,14.7l10.667,15.75c0.198,0.3,0.497,0.698,0.497,1.047c0,0.497-0.399,0.797-1.145,0.797h-4.982
      c-1.15,0-1.946-0.647-2.594-1.596l-9.718-15.049h-0.05v14.751c0,1.544-0.846,1.893-1.893,1.893h-2.991
      c-1.045,0-1.893-0.349-1.893-1.893V84.223z"/>
    <path d="M40.941,141.072h-7.865c-1.544,0-1.893-0.848-1.893-1.893v-2.245c0-1.045,0.349-1.893,1.893-1.893H55.59
      c1.544,0,1.893,0.849,1.893,1.893v2.245c0,1.046-0.349,1.893-1.893,1.893h-7.87v25.965c0,1.544-0.849,1.893-1.896,1.893h-2.989
      c-1.046,0-1.893-0.349-1.893-1.893V141.072z"/>
    <path d="M40.941,36.611h-7.865c-1.544,0-1.893-0.848-1.893-1.893v-2.245c0-1.045,0.349-1.893,1.893-1.893H55.59
      c1.544,0,1.893,0.849,1.893,1.893v2.245c0,1.046-0.349,1.893-1.893,1.893h-7.87v25.965c0,1.544-0.849,1.893-1.896,1.893h-2.989
      c-1.046,0-1.893-0.349-1.893-1.893V36.611z"/>
    <path d="M84.946,136.842c0-1.544,0.846-1.893,1.895-1.893h2.938c1.05,0,1.896,0.349,1.896,1.893v17.992
      c0,5.631,2.092,8.621,6.927,8.621c4.782,0,7.024-2.989,7.024-8.621v-17.992c0-1.544,0.846-1.893,1.895-1.893h2.94
      c1.045,0,1.893,0.349,1.893,1.893v17.943c0,10.564-6.378,14.7-13.753,14.7c-7.376,0-13.655-4.136-13.655-14.7V136.842z"/>
    <path d="M149.152,151.786l-9.022-15.099c-0.648-1.097,0.05-1.646,0.899-1.646h4.784c1.148,0,1.745,0.647,2.29,1.695
      l5.286,9.767l5.231-9.767c0.547-1.048,1.148-1.695,2.293-1.695h4.636c0.846,0,1.595,0.549,0.897,1.646l-9.171,15.099l9.52,15.5
      c0.701,1.096-0.048,1.645-0.897,1.645h-5.035c-1.148,0-1.743-0.647-2.343-1.645l-5.479-9.767l-5.532,9.767
      c-0.6,0.998-1.198,1.645-2.343,1.645h-4.784c-0.846,0-1.544-0.549-0.899-1.596L149.152,151.786z"/>
    <path d="M196.855,200H3.145c-1.736,0-3.145-1.409-3.145-3.145V3.145C0.001,1.408,1.409,0,3.145,0h193.71
      c1.735,0,3.144,1.408,3.144,3.145v193.71C199.999,198.591,198.59,200,196.855,200z M6.879,193.187h186.274V6.852H6.879V193.187z"/>
  </g>
</svg>
