<?xml version="1.0" encoding="utf-8"?>
<!-- Generator: Adobe Illustrator 16.0.4, SVG Export Plug-In . SVG Version: 6.00 Build 0)  -->
<!DOCTYPE svg PUBLIC "-//W3C//DTD SVG 1.1//EN" "http://www.w3.org/Graphics/SVG/1.1/DTD/svg11.dtd">
<svg version="1.1" xmlns="http://www.w3.org/2000/svg" xmlns:xlink="http://www.w3.org/1999/xlink" x="0px" y="0px"
	 width="266.308px" height="420.387px" viewBox="0 0 266.308 420.387" enable-background="new 0 0 266.308 420.387"
	 xml:space="preserve">
<g>
	<path id="IN_Porter" fill="none" class="IN_County" stroke="#000000" stroke-width="1.3906" d="M92.686,24.625l0.469,45.684l-0.678,0.744
		l-2.145,0.955l-0.612-0.234l-5.188-3.987L80.79,66.1l-1.402-0.492l-0.813,0.09l-4.242,1.974l-1.887,2.246l-0.35-36.83
		L92.686,24.625"/>
	<path id="IN_Lake" fill="none" class="IN_County" stroke="#000000" stroke-width="1.3906" d="M50.622,24.964l21.474,8.125l0.35,36.83l-4.074,2.257
		l-17.964,5.062l0.007-12.735L50.622,24.964"/>
	<path id="IN_Perry" fill="none" class="IN_County" stroke="#000000" stroke-width="1.3906" d="M113.432,357.227l8.164-0.406l8.265,5.682l0.255,10.656
		l-1.925,4.89l-0.441,0.02l-1.557,0.144l-0.42,0.193l-0.342,0.401l-0.22,1.032l0.049,5.746l-5.867,10.656l-2.215,1.418l-1.021,0.244
		l-0.566-0.09l-12.022-14.952l1.556-19.993l-0.08-4.242l8.466,0.055L113.432,357.227"/>
	<path id="IN_Spencer" fill="none" class="IN_County" stroke="#000000" stroke-width="1.3906" d="M105.124,362.868l-1.556,19.993l-12.298,6.646
		l-5.029,3.924l-6.477,9.558l-10.24-8.246l0.052-4.633l0.159-0.352l14.353-17.937l4.146-8.694L105.124,362.868"/>
	<path id="IN_Warrick" fill="none" class="IN_County" stroke="#000000" stroke-width="1.3906" d="M65.876,359.1l18.21,1.23l4.147,2.797l-4.146,8.694
		l-14.353,17.937l-0.159,0.352l-0.052,4.633l-2.502-2.104l-11.158-4.101l0.079-9.067l-1.753,0.014l0.093-8.396l0.342-4.204
		l0.073-3.454l11.176-0.066L65.876,359.1"/>
	<path id="IN_Vanderburgh" fill="none" class="IN_County" stroke="#000000" stroke-width="1.3906" d="M38.113,366.567l16.51,0.318l-0.342,4.204
		l-0.093,8.396l1.753-0.014l-0.079,9.067l-18.729,3.86L38.113,366.567"/>
	<path id="IN_Posey" fill="none" class="IN_County" stroke="#000000" stroke-width="1.3906" d="M18.194,360.544l19.918,6.022l-0.978,25.832
		l-17.029-0.186l-7.61,9.895l-3.004-8.777l3.584,0.188l0.128-0.01l0.173-0.097l0.05-0.062l0.236-0.389l3.056-21.997l1.33-9.963
		L18.194,360.544"/>
	<path id="IN_Gibson" fill="none" class="IN_County" stroke="#000000" stroke-width="1.3906" d="M34.278,342.763l20.69-11.401l-0.016,6.547
		l1.384,2.846l3.896,5.668l1.069-0.277l3.987-0.311l0.605,0.322l-0.022,17.208l-11.176,0.066l-0.073,3.454l-16.51-0.318
		l-19.918-6.022L34.278,342.763"/>
	<path id="IN_Pike" fill="none" class="IN_County" stroke="#000000" stroke-width="1.3906" d="M71.401,330.219L84.02,333.1l0.066,27.23l-18.21-1.23
		l0.018-12.943l-0.605-0.322l-3.987,0.311l-1.069,0.277l-3.896-5.668l-1.384-2.846l0.016-6.547l2.787-0.725l4.974-0.328l0.483,0.186
		l3.793,3.086l0.978-0.173l1.374-1.017l1.057-0.883L71.401,330.219"/>
	<path id="IN_DuBois" fill="none" class="IN_County" stroke="#000000" stroke-width="1.3906" d="M113.03,331.815l0.17,12.678l0.232,12.734l0.078,1.453
		l-8.466-0.055l0.08,4.242l-16.89,0.26l-4.147-2.797L84.02,333.1l11.034,0.936L113.03,331.815"/>
	<path id="IN_Crawford" fill="none" class="IN_County" stroke="#000000" stroke-width="1.3906" d="M140.962,341.499l3.998-0.02l-0.861,28.265
		l-15.908,8.305l1.925-4.89l-0.255-10.656l-8.265-5.682l-8.164,0.406l-0.232-12.734l17.105-0.33l10.675,0.126L140.962,341.499"/>
	<path id="IN_Harrison" fill="none" class="IN_County" stroke="#000000" stroke-width="1.3906" d="M161.51,341.695l0.151,8.417l1.396,2.781
		l0.237,0.021l2.831,2.506l1.417,1.403l4.167,7.139l0.029,0.741l-3.346,16.603l-3.713,0.903l-2.292,0.531l-10.722-1.503
		l-0.525-0.114l-3.126-1.564l-3.165-2.529l-0.342-0.262l-0.146-0.282l-0.376-0.705l-0.365-1.912l-0.051-0.176l0.01-0.439
		l0.029-0.668l0.016-0.171l0.473-2.671l0.861-28.265L161.51,341.695"/>
	<path id="IN_Floyd" fill="none" class="IN_County" stroke="#000000" stroke-width="1.3906" d="M164.343,341.622l0.011,0.702l2.085,0.688l11.821-0.269
		l3.636,5.166l-2.188,5.984l-7.969,10.811l-0.029-0.741l-4.167-7.139l-1.417-1.403l-2.831-2.506l-0.237-0.021l-1.396-2.781
		l-0.151-8.417L164.343,341.622"/>
	<path id="IN_Clark" fill="none" class="IN_County" stroke="#000000" stroke-width="1.3906" d="M195.6,322.934l10.675,1.686l-0.312,6.033
		l-14.99,14.174l-11.264,9.066l2.188-5.984l-3.636-5.166l-11.821,0.269l-2.085-0.688l-0.011-0.702l0.008-6.792l3.379-1.343
		l4.657-0.207l1.377-1.465l1.327-2.811l-0.051-1.34L195.6,322.934"/>
	<path id="IN_Ohio" fill="none" class="IN_County" stroke="#000000" stroke-width="1.3906" d="M227.302,289.215l18.582-8.436l6.302,12.394
		l-25.068-2.162L227.302,289.215"/>
	<path id="IN_Switzerland" fill="none" class="IN_County" stroke="#000000" stroke-width="1.3906" d="M227.118,291.011l25.068,2.162l0.631,4.255
		l-17.122,9.455l-12.879,7.207l-0.656-21.431L227.118,291.011"/>
	<path id="IN_Jefferson" fill="none" class="IN_County" stroke="#000000" stroke-width="1.3906" d="M204.267,293.12l17.893-0.46l0.656,21.431
		l-9.981-4.502l-6.56,15.031l-10.675-1.686l-0.21-7.014l-2.768-1.322l-2.096-1.404l-2.16-2.753l-1.453-2.249l-0.127-5.291
		l5.396-0.953l2.667-3.524l0.942-2.189l1.604-2.897L204.267,293.12"/>
	<path id="IN_Scott" fill="none" class="IN_County" stroke="#000000" stroke-width="1.3906" d="M186.787,302.901l0.127,5.291l1.453,2.249l2.16,2.753
		l2.096,1.404l2.768,1.322l0.21,7.014l-20.56,4.73l-3.299-16.672l6.798-7.18L186.787,302.901"/>
	<path id="IN_Washington" fill="none" class="IN_County" stroke="#000000" stroke-width="1.3906" d="M143.027,308.584l28.715,2.408l3.299,16.672
		l0.051,1.34l-1.327,2.811l-1.377,1.465l-4.657,0.207l-3.379,1.343l-0.008,6.792l-2.833,0.073l-16.55-0.216l-3.998,0.02
		l-0.309-25.611L143.027,308.584"/>
	<path id="IN_Orange" fill="none" class="IN_County" stroke="#000000" stroke-width="1.3906" d="M140.654,315.887l0.309,25.611l0.018,2.79
		l-10.675-0.126l-17.105,0.33l-0.17-12.678l-0.179-15.474L140.654,315.887"/>
	<path id="IN_Martin" fill="none" class="IN_County" stroke="#000000" stroke-width="1.3906" d="M96.318,295.419l16.382-0.157l0.151,21.079
		l0.179,15.474l-17.977,2.221L96.318,295.419"/>
	<path id="IN_Daviess" fill="none" class="IN_County" stroke="#000000" stroke-width="1.3906" d="M81.927,295.509l14.392-0.09l-1.265,38.616
		L84.02,333.1l-12.618-2.881l-2.012-14.908l1.704-7.736l1.534-2.457l7.016-8.1L81.927,295.509"/>
	<path id="IN_Knox" fill="none" class="IN_County" stroke="#000000" stroke-width="1.3906" d="M71.406,295.166l10.521,0.344l-2.284,1.509l-7.016,8.1
		l-1.534,2.457l-1.704,7.736l2.012,14.908l-0.988,1.289l-1.057,0.883l-1.374,1.017l-0.978,0.173l-3.793-3.086l-0.483-0.186
		l-4.974,0.328l-2.787,0.725l-20.69,11.401l6.679-14.788l1.787-3.777l6.509-6.937l0.636-0.442l0.853-1.272l1.589-5.972l0.24-2.327
		l-2.291-6.358l-0.139-0.28l-0.3-0.064l-0.17-4.81L71.406,295.166"/>
	<path id="IN_Sullivan" fill="none" class="IN_County" stroke="#000000" stroke-width="1.3906" d="M71.358,261.286l-0.012,8.402l0.06,25.478
		l-21.735,0.569l0.49-0.561l0.668-1.461l0.474-3.021l-4.443-9.938l-3.102-4.389l-1.04-5.261l1.864-9.847L71.358,261.286"/>
	<path id="IN_Greene" fill="none" class="IN_County" stroke="#000000" stroke-width="1.3906" d="M85.067,270.014l27.42,0.056l0.171,16.718l0.042,8.475
		l-16.382,0.157l-14.392,0.09l-10.521-0.344l-0.06-25.478L85.067,270.014"/>
	<path id="IN_Lawrence" fill="none" class="IN_County" stroke="#000000" stroke-width="1.3906" d="M112.659,286.788l26.96-0.127l3.408,21.924
		l-2.373,7.303l-27.803,0.454l-0.151-21.079L112.659,286.788"/>
	<path id="IN_Jackson" fill="none" class="IN_County" stroke="#000000" stroke-width="1.3906" d="M157.097,280.704l20.721-2.055l0.722,25.164
		l-6.798,7.18l-28.715-2.408l-3.408-21.924l-0.101-5.587L157.097,280.704"/>
	<path id="IN_Jennings" fill="none" class="IN_County" stroke="#000000" stroke-width="1.3906" d="M204.078,265.849l0.189,27.271l-6.872,0.217
		l-1.604,2.897l-0.942,2.189l-2.667,3.524l-5.396,0.953l-8.247,0.912l-0.722-25.164l8.178-6.189L204.078,265.849"/>
	<path id="IN_Ripley" fill="none" class="IN_County" stroke="#000000" stroke-width="1.3906" d="M231.376,254.432l-4.074,34.783l-0.185,1.796
		l-4.958,1.648l-17.893,0.46l-0.189-27.271l10.4-7.265L231.376,254.432"/>
	<path id="IN_Dearborn" fill="none" class="IN_County" stroke="#000000" stroke-width="1.3906" d="M231.376,254.432l18.115-0.283l0.478,19.273
		l-4.085,7.357l-18.582,8.436L231.376,254.432"/>
	<path id="IN_Franklin" fill="none" class="IN_County" stroke="#000000" stroke-width="1.3906" d="M249.23,233.217l0.262,20.932l-18.115,0.283
		l-16.898,4.152L214,240.735l-0.218-6.939l19.235-0.557L249.23,233.217"/>
	<path id="IN_Decatur" fill="none" class="IN_County" stroke="#000000" stroke-width="1.3906" d="M189.617,241.295L214,240.735l0.479,17.85
		l-10.4,7.265l-18.082,6.61l-0.24-21.162L189.617,241.295"/>
	<path id="IN_Bartholomew" fill="none" class="IN_County" stroke="#000000" stroke-width="1.3906" d="M185.755,251.297l0.24,21.162l-8.178,6.189
		l-20.721,2.055l-0.799-28.369l9.812-0.421L185.755,251.297"/>
	<path id="IN_Brown" fill="none" class="IN_County" stroke="#000000" stroke-width="1.3906" d="M144.054,252.752l12.244-0.418l0.799,28.369
		l-17.579,0.37l-4.999-28.011L144.054,252.752"/>
	<path id="IN_Owen" fill="none" class="IN_County" stroke="#000000" stroke-width="1.3906" d="M93.37,240.511l18.567,0.167l4.256,11.77l-3.706,17.622
		l-27.42-0.056l0.006-16.865l8.155,0.025L93.37,240.511"/>
	<path id="IN_Clay" fill="none" class="IN_County" stroke="#000000" stroke-width="1.3906" d="M74.297,227.674l13.654,0.15l5.418,12.687l-0.142,12.663
		l-8.155-0.025l-0.006,16.865l-13.721-0.326l0.012-8.402l0.07-25.271l2.811,0.089L74.297,227.674"/>
	<path id="IN_Vigo" fill="none" class="IN_County" stroke="#000000" stroke-width="1.3906" d="M74.297,227.674l-0.059,8.429l-2.811-0.089l-0.07,25.271
		l-26.774-0.027l5.325-21.032l-0.016-12.565l10.966-0.057L74.297,227.674"/>
	<path id="IN_Vermillion" fill="none" class="IN_County" stroke="#000000" stroke-width="1.3906" d="M59.055,177.46l-0.985,16.89l2.942,4.665
		l0.828,1.32l1.087,2.752l-2.167,17.007l0.099,7.51l-10.966,0.057l-0.055-26.618l0.156-25.562L59.055,177.46"/>
	<path id="IN_Parke" fill="none" class="IN_County" stroke="#000000" stroke-width="1.3906" d="M82.11,194.265l5.977,8.309l-0.136,25.251l-13.654-0.15
		l-13.438-0.07l-0.099-7.51l2.167-17.007l-1.087-2.752l-0.828-1.32l-2.942-4.665L82.11,194.265"/>
	<path id="IN_Putnam" fill="none" class="IN_County" stroke="#000000" stroke-width="1.3906" d="M88.087,202.573l22.951,0.01l0.605-0.013l0.084,13.213
		l1.342,9.435l0.985,2.811l-2.117,12.649l-18.567-0.167l-5.418-12.687L88.087,202.573"/>
	<path id="IN_Morgan" fill="none" class="IN_County" stroke="#000000" stroke-width="1.3906" d="M143.843,224.561l0.211,28.191l-9.535,0.311
		l-18.326-0.615l-4.256-11.77l2.117-12.649l14.029-0.115l-0.051-2.823l9.503-0.284l0.709-0.003L143.843,224.561"/>
	<path id="IN_Johnson" fill="none" class="IN_County" stroke="#000000" stroke-width="1.3906" d="M165.654,223.813l0.457,28.101l-9.812,0.421
		l-12.244,0.418l-0.211-28.191L165.654,223.813"/>
	<path id="IN_Shelby" fill="none" class="IN_County" stroke="#000000" stroke-width="1.3906" d="M165.593,218.118l23.307-0.547l0.717,23.725
		l-3.861,10.002l-19.645,0.616l-0.457-28.101L165.593,218.118"/>
	<path id="IN_Rush" fill="none" class="IN_County" stroke="#000000" stroke-width="1.3906" d="M191.378,209.018l21.598-0.544L214,240.735
		l-24.383,0.561l-0.717-23.725L191.378,209.018"/>
	<path id="IN_Fayette" fill="none" class="IN_County" stroke="#000000" stroke-width="1.3906" d="M212.976,208.474l5.865-0.209l2.764-0.049l0.067,7.03
		l11.007-0.179l0.338,18.172l-19.235,0.557L212.976,208.474"/>
	<path id="IN_Union" fill="none" class="IN_County" stroke="#000000" stroke-width="1.3906" d="M232.679,215.067l16.07-1.586l0.368,15.363l0.112,4.373
		l-16.213,0.021L232.679,215.067"/>
	<path id="IN_Wayne" fill="none" class="IN_County" stroke="#000000" stroke-width="1.3906" d="M248.258,186.584l0.104,8.518l0.387,18.379
		l-16.07,1.586l-11.007,0.179l-0.067-7.03l-2.764,0.049l0.936-20.884L248.258,186.584"/>
	<path id="IN_Henry" fill="none" class="IN_County" stroke="#000000" stroke-width="1.3906" d="M192.332,180.978l26.371-0.554l1.074,6.957
		l-0.936,20.884l-5.865,0.209l-21.598,0.544l1.192-15.387L192.332,180.978"/>
	<path id="IN_Hancock" fill="none" class="IN_County" stroke="#000000" stroke-width="1.3906" d="M192.571,193.631l-1.192,15.387l-2.479,8.553
		l-23.307,0.547l0.659-22.213l5.459-1.663L192.571,193.631"/>
	<path id="IN_Hendricks" fill="none" class="IN_County" stroke="#000000" stroke-width="1.3906" d="M137.921,196.603l0.322,28.201l-0.709,0.003
		l-9.503,0.284l0.051,2.823l-14.029,0.115l-0.985-2.811l-1.342-9.435l-0.084-13.213l-0.605,0.013l-0.034-5.581L137.921,196.603"/>
	<path id="IN_Randolph" fill="none" class="IN_County" stroke="#000000" stroke-width="1.3906" d="M217.84,158.229l30.103-1.083l0.315,29.438
		l-28.481,0.796l-1.074-6.957L217.84,158.229"/>
	<path id="IN_Delaware" fill="none" class="IN_County" stroke="#000000" stroke-width="1.3906" d="M217.596,151.258l0.244,6.972l0.862,22.194
		l-26.371,0.554l-0.727-29.176l9.723-0.16L217.596,151.258"/>
	<path id="IN_Madison" fill="none" class="IN_County" stroke="#000000" stroke-width="1.3906" d="M191.605,151.801l0.727,29.176l0.239,12.653
		l-20.859,0.611l-0.394-26.582l-0.297-15.395L191.605,151.801"/>
	<path id="IN_Tipton" fill="none" class="IN_County" stroke="#000000" stroke-width="1.3906" d="M171.021,152.266l0.297,15.395l-27.659,0.691
		l-0.236-15.248l27.575-3.562L171.021,152.266"/>
	<path id="IN_Clinton" fill="none" class="IN_County" stroke="#000000" stroke-width="1.3906" d="M110.626,147.829l23.104-0.199l4.812-0.036
		l0.064,4.174l2.088,1.396l2.728-0.06l0.236,15.248l0.065,3.406l-32.985,0.554l-0.023-3.462L110.626,147.829"/>
	<path id="IN_Montgomery" fill="none" class="IN_County" stroke="#000000" stroke-width="1.3906" d="M110.715,168.85l0.023,3.462l0.265,24.691
		l0.034,5.581l-22.951-0.01l-5.977-8.309l-0.211-25.29L110.715,168.85"/>
	<path id="IN_Fountain" fill="none" class="IN_County" stroke="#000000" stroke-width="1.3906" d="M81.899,168.975l0.211,25.29L58.07,194.35
		l0.985-16.89l-2.044-2.638l-0.289-0.928l0.112-0.497l1.144-1.769l12.582-11.036l1.9-1.305l9.415-4.938L81.899,168.975"/>
	<path id="IN_Jay" fill="none" class="IN_County" stroke="#000000" stroke-width="1.3906" d="M247.343,131.86l0.47,21.189l0.13,4.098l-30.103,1.083
		l-0.244-6.972l0.929-18.17l9.583-0.344L247.343,131.86"/>
	<path id="IN_Blackford" fill="none" class="IN_County" stroke="#000000" stroke-width="1.3906" d="M200.738,133.543l17.787-0.455l-0.929,18.17
		l-16.269,0.383L200.738,133.543"/>
	<path id="IN_Grant" fill="none" class="IN_County" stroke="#000000" stroke-width="1.3906" d="M186.751,125.489l13.698-0.339l0.288,8.393l0.59,18.098
		l-9.723,0.16l-20.584,0.464l-0.023-2.724l-0.401-15.322l-0.183-8.323L186.751,125.489"/>
	<path id="IN_Howard" fill="none" class="IN_County" stroke="#000000" stroke-width="1.3906" d="M148.837,134.809l21.759-0.589l0.401,15.322
		l-27.575,3.562l-2.728,0.06l-2.088-1.396l-0.064-4.174l-4.812,0.036l-0.018-12.469L148.837,134.809"/>
	<path id="IN_Warren" fill="none" class="IN_County" stroke="#000000" stroke-width="1.3906" d="M50.375,143.712l31.338,0.103l0.162,10.536
		l-9.415,4.938l-1.9,1.305l-12.582,11.036l-1.144,1.769l-0.112,0.497l0.289,0.928l2.044,2.638l-9.061-1.98L50.375,143.712"/>
	<path id="IN_Benton" fill="none" class="IN_County" stroke="#000000" stroke-width="1.3906" d="M69.087,118.681l12.173-0.037l0.453,25.17
		l-31.338-0.103l0.012-1.371l0.025-23.695L69.087,118.681"/>
	<path id="IN_Adams" fill="none" class="IN_County" stroke="#000000" stroke-width="1.3906" d="M246.36,98.097l0.578,18.739l0.405,15.024
		l-19.235,0.884l-1.237-33.682L246.36,98.097"/>
	<path id="IN_Wells" fill="none" class="IN_County" stroke="#000000" stroke-width="1.3906" d="M208.033,99.579l18.838-0.517l1.237,33.682
		l-9.583,0.344l-17.787,0.455l-0.288-8.393l8.261-0.24L208.033,99.579"/>
	<path id="IN_Huntington" fill="none" class="IN_County" stroke="#000000" stroke-width="1.3906" d="M185.713,91.826l22.179-0.768l0.141,8.521
		l0.678,25.332l-8.261,0.24l-13.698,0.339L185.713,91.826"/>
	<path id="IN_Wabash" fill="none" class="IN_County" stroke="#000000" stroke-width="1.3906" d="M182.732,87.59l2.981,4.236l1.038,33.663
		l-16.338,0.407l-5.434,0.152l-1.003-33.556l-0.024-4.2L182.732,87.59"/>
	<path id="IN_Miami" fill="none" class="IN_County" stroke="#000000" stroke-width="1.3906" d="M163.977,92.492l1.003,33.556l5.434-0.152l0.183,8.323
		l-21.759,0.589l-0.753-33.437L163.977,92.492"/>
	<path id="IN_Cass" fill="none" class="IN_County" stroke="#000000" stroke-width="1.3906" d="M126.55,101.616l21.535-0.244l0.753,33.437
		l-15.125,0.352l-0.103-12.678l-10.965-4.016l-4.093-0.003l-0.164-16.882L126.55,101.616"/>
	<path id="IN_White" fill="none" class="IN_County" stroke="#000000" stroke-width="1.3906" d="M118.388,101.582l0.164,16.882l-11.992-0.059
		l-0.332,0.365l-0.334,0.648l-1.075,7.867l0.186,8.04l-23.444,0.079l-0.301-16.76l12.02-17.037L118.388,101.582"/>
	<path id="IN_Allen" fill="none" class="IN_County" stroke="#000000" stroke-width="1.3906" d="M245.419,66.247l0.738,25.412l0.202,6.438
		l-19.489,0.965l-18.838,0.517l-0.141-8.521l1.418-25.001l8.25-0.204l27.812-1.386L245.419,66.247"/>
	<path id="IN_Whitley" fill="none" class="IN_County" stroke="#000000" stroke-width="1.3906" d="M184.585,63.628l8.288-0.2l-0.013,2.788l16.449-0.158
		l-1.418,25.001l-22.179,0.768l-2.981-4.236l-0.406-12.706l2.437-0.056l-0.024-7.257L184.585,63.628"/>
	<path id="IN_Fulton" fill="none" class="IN_County" stroke="#000000" stroke-width="1.3906" d="M126.373,76.359l27.937-0.472l9.643,12.404l0.024,4.2
		l-15.893,8.88l-21.535,0.244L126.373,76.359"/>
	<path id="IN_Pulaski" fill="none" class="IN_County" stroke="#000000" stroke-width="1.3906" d="M126.373,76.359l0.177,25.257l-8.162-0.035
		l-25.109,0.026l-0.122-25.05L126.373,76.359"/>
	<path id="IN_De_Kalb" fill="none" class="IN_County" stroke="#000000" stroke-width="1.3906" d="M216.842,40.556l27.761-1.062l0.303,10.042
		l0.466,14.933l-27.812,1.386L216.842,40.556"/>
	<path id="IN_Noble" fill="none" class="IN_County" stroke="#000000" stroke-width="1.3906" d="M216.842,40.556l0.718,25.298l-8.25,0.204
		l-16.449,0.158l0.013-2.788l-8.288,0.2l-0.367-13.716l-0.256-8.322L216.842,40.556"/>
	<path id="IN_Kosciusko" fill="none" class="IN_County" stroke="#000000" stroke-width="1.3906" d="M155.265,50.494l28.953-0.582l0.367,13.716
		l0.152,3.943l0.024,7.257l-2.437,0.056l0.406,12.706l-18.779,0.701l-9.643-12.404L155.265,50.494"/>
	<path id="IN_Marshall" fill="none" class="IN_County" stroke="#000000" stroke-width="1.3906" d="M155.265,50.494l-0.955,25.394l-27.937,0.472
		l-0.247-25.233l-0.05-4.166l12.857-0.355l16.233-0.252L155.265,50.494"/>
	<path id="IN_Starke" fill="none" class="IN_County" stroke="#000000" stroke-width="1.3906" d="M126.126,51.126l0.247,25.233l-33.215,0.198
		l-0.003-6.249l8.21-3.562l2.224-1.179l1.859-2.42l1.453-2.225l0.587-1.222l1.962-5.476l4.128-2.954l8.403-0.078L126.126,51.126"/>
	<path id="IN_Jasper" fill="none" class="IN_County" stroke="#000000" stroke-width="1.3906" d="M93.154,70.309l0.003,6.249l0.122,25.05l-12.02,17.037
		l-12.173,0.037l-0.149-16.88l-0.385-0.199l-0.17-0.426l-0.011-29l4.074-2.257l1.887-2.246l4.242-1.974l0.813-0.09L80.79,66.1
		l3.741,1.687l5.188,3.987l0.612,0.234l2.145-0.955L93.154,70.309"/>
	<path id="IN_Newton" fill="none" class="IN_County" stroke="#000000" stroke-width="1.3906" d="M50.407,77.239l17.964-5.062l0.011,29l0.17,0.426
		l0.385,0.199l0.149,16.88l-18.675-0.035l0.021-26.38L50.407,77.239"/>
	<path id="IN_Steuben" fill="none" class="IN_County" stroke="#000000" stroke-width="1.3906" d="M242.53,17.399l1.529,6.11l0.544,15.984
		l-27.761,1.062l-0.729-22.443L242.53,17.399"/>
	<path id="IN_LaGrange" fill="none" class="IN_County" stroke="#000000" stroke-width="1.3906" d="M209.318,18.231l6.795-0.118l0.729,22.443
		l-32.88,1.034l-0.787-22.717L209.318,18.231"/>
	<path id="IN_Elkhart" fill="none" class="IN_County" stroke="#000000" stroke-width="1.3906" d="M183.175,18.873l0.787,22.717l0.256,8.322
		l-28.953,0.582l-0.719-31.249l19.272-0.217L183.175,18.873"/>
	<path id="IN_St._Joseph" fill="none" class="IN_County" stroke="#000000" stroke-width="1.3906" d="M154.546,19.245l0.621,27.109l-16.233,0.252
		l-12.857,0.355l0.05,4.166l-4.145,0.066l-0.25-31.482l21.201-0.274L154.546,19.245"/>
	<path id="IN_La_Porte" fill="none" class="IN_County" stroke="#000000" stroke-width="1.3906" d="M100.35,19.834l21.382-0.124l0.25,31.482
		l-8.403,0.078l-4.128,2.954l-1.962,5.476l-0.587,1.222l-1.453,2.225l-1.859,2.42l-2.224,1.179l-8.21,3.562l-0.469-45.684
		L100.35,19.834"/>
	<path id="IN_Tippecanoe" fill="none" class="IN_County" stroke="#000000" stroke-width="1.3906" d="M81.561,135.404l23.444-0.079l5.271,0.007
		l0.35,12.497l0.089,21.021l-28.816,0.125l-0.024-14.625l-0.162-10.536L81.561,135.404"/>
	<path id="IN_Carroll" fill="none" class="IN_County" stroke="#000000" stroke-width="1.3906" d="M133.712,135.161l0.018,12.469l-23.104,0.199
		l-0.354-12.497l-5.267-0.007l-0.186-8.04l1.075-7.867l0.334-0.648l0.332-0.365l11.992,0.059l4.093,0.003l10.965,4.016
		L133.712,135.161"/>
	<path id="IN_Boone" fill="none" class="IN_County" stroke="#000000" stroke-width="1.3906" d="M143.724,171.758l0.445,24.61l-6.248,0.235l-26.917,0.4
		l-0.265-24.691L143.724,171.758"/>
	<path id="IN_Hamilton" fill="none" class="IN_County" d="M143.659,168.352l27.659-0.691l0.394,26.582l-5.459,1.663l-22.083,0.463l-0.445-24.61
		L143.659,168.352"/>
	<path id="IN_Marion" fill="none" class="IN_County" stroke="#000000" stroke-width="1.3906" d="M166.252,195.904l-0.659,22.213l0.061,5.695
		l-21.811,0.748l-5.6,0.242l-0.322-28.201l6.248-0.235L166.252,195.904"/>
	<path id="IN_Monroe" fill="none" class="IN_County" stroke="#000000" stroke-width="1.3906" d="M116.193,252.448l18.326,0.615l4.999,28.011
		l0.101,5.587l-26.96,0.127l-0.171-16.718L116.193,252.448"/>
</g>
</svg>
