<?xml version="1.0" encoding="UTF-8" standalone="no"?>
<svg
   xmlns:dc="http://purl.org/dc/elements/1.1/"
   xmlns:cc="http://creativecommons.org/ns#"
   xmlns:rdf="http://www.w3.org/1999/02/22-rdf-syntax-ns#"
   xmlns:svg="http://www.w3.org/2000/svg"
   xmlns="http://www.w3.org/2000/svg"
   viewBox="0 0 696 314.66666"
   height="314.66666"
   width="696"
   xml:space="preserve"
   id="svg2"
   version="1.1"><metadata
     id="metadata8"><rdf:RDF><cc:Work
         rdf:about=""><dc:format>image/svg+xml</dc:format><dc:type
           rdf:resource="http://purl.org/dc/dcmitype/StillImage" /></cc:Work></rdf:RDF></metadata><defs
     id="defs6" /><g
     transform="matrix(1.3333333,0,0,-1.3333333,0,314.66667)"
     id="g10"><g
       transform="scale(0.1)"
       id="g12"><path
         id="path14"
         style="fill:#359690;fill-opacity:1;fill-rule:evenodd;stroke:none"
         d="M 5.79297,1200.98 H 5214.2 V 666.48 H 5.79297 v 534.5" /><path
         id="path16"
         style="fill:#359690;fill-opacity:1;fill-rule:evenodd;stroke:none"
         d="M 5.79297,2328.49 H 1027.97 V 1306.32 H 5.79297 v 1022.17" /><path
         id="path18"
         style="fill:#359690;fill-opacity:1;fill-rule:evenodd;stroke:none"
         d="m 5211.3,2328.49 c -778.6,0 -1557.21,0 -2335.81,0 l 593.01,-1022.17 574.89,990.93 574.89,-990.93 593.02,1022.17" /><path
         id="path20"
         style="fill:#359690;fill-opacity:1;fill-rule:evenodd;stroke:none"
         d="m 2026.07,2350.35 c 294.3,0 532.96,-238.65 532.96,-532.95 0,-294.29 -238.66,-532.94 -532.96,-532.94 -294.28,0 -532.94,238.65 -532.94,532.94 0,294.3 238.66,532.95 532.94,532.95" /><path
         id="path22"
         style="fill:#231f20;fill-opacity:1;fill-rule:nonzero;stroke:none"
         d="m 4911.74,167.668 h 66.58 c 1.2,-26.551 9.01,-47.703 23.56,-63.445 14.53,-15.8636 33.52,-23.7933 56.71,-23.7933 25.6,0 46.02,7.9297 61.41,23.7933 15.37,15.859 23.07,37.011 23.07,63.566 0,23.191 -5.66,41.219 -16.95,53.836 -11.17,12.738 -34.85,24.512 -70.78,35.57 -1.8,0.481 -5.04,1.321 -9.49,2.516 -42.9,11.418 -74.02,30.285 -93.24,56.602 -8.66,11.535 -15.27,23.789 -19.58,36.761 -4.34,13.11 -6.5,26.926 -6.5,41.711 0,43.977 12.98,79.43 39.06,106.578 26.07,27.043 60.2,40.617 102.49,40.617 39.17,0 70.78,-12.132 94.81,-36.406 24.16,-24.273 37.49,-57.558 40.02,-99.855 h -69.34 c -1.2,20.422 -8.05,36.886 -20.55,49.504 -12.61,12.621 -28.36,18.871 -47.46,18.871 -20.42,0 -37.01,-6.973 -49.75,-20.914 -12.86,-14.063 -19.22,-32.086 -19.22,-54.071 0,-7.812 1.2,-15.019 3.48,-21.875 2.4,-6.847 6,-13.093 10.93,-18.98 10.1,-12.02 31.72,-22.356 64.78,-31.008 15.25,-3.965 27.03,-7.445 35.2,-10.211 33.89,-12.617 59.48,-31.125 77.03,-55.273 17.42,-24.153 26.19,-53.114 26.19,-87.004 0,-49.504 -14.06,-89.4025 -42.29,-119.6838 -28.12,-30.2812 -65.5,-45.41795 -111.88,-45.41795 -43.74,0 -79.19,14.53515 -106.58,43.50005 -27.28,28.9531 -41.22,67.1717 -41.71,114.5117" /><path
         id="path24"
         style="fill:#231f20;fill-opacity:1;fill-rule:nonzero;stroke:none"
         d="M 4862.34,19.8672 H 4596.18 V 532.488 h 266.16 v -68.25 h -191.89 v -153.09 h 191.89 V 244.219 H 4670.45 V 90.6445 h 191.89 V 19.8672" /><path
         id="path26"
         style="fill:#231f20;fill-opacity:1;fill-rule:nonzero;stroke:none"
         d="M 4456.46,19.8672 H 4382.2 V 463.516 h -95.77 v 68.972 h 265.8 v -68.972 h -95.77 V 19.8672" /><path
         id="path28"
         style="fill:#231f20;fill-opacity:1;fill-rule:nonzero;stroke:none"
         d="M 3992.14,169.113 3934.46,19.8672 h -78.58 l 200.31,512.6208 h 72.22 L 4328.72,19.8672 h -81.35 l -56.23,149.2458 z m 172.2,72.215 -72.22,194.668 -73.54,-194.668 z" /><path
         id="path30"
         style="fill:#231f20;fill-opacity:1;fill-rule:nonzero;stroke:none"
         d="m 3815.27,19.8672 h -74.26 V 532.488 h 74.26 V 19.8672" /><path
         id="path32"
         style="fill:#231f20;fill-opacity:1;fill-rule:nonzero;stroke:none"
         d="M 3693.51,148.324 C 3671.16,103.508 3640.39,69.1328 3601.1,45.3438 3561.81,21.5469 3516.15,9.65625 3464.35,9.65625 c -38.45,0 -74.02,7.44925 -106.46,22.23045 -32.57,14.7774 -61.65,36.6446 -87.48,65.8438 -21.87,24.1605 -38.46,51.6715 -49.63,82.5545 -11.3,30.766 -16.94,63.809 -16.94,99.02 0,35.687 6.85,69.57 20.43,101.664 13.58,31.961 33.52,61.16 59.84,87.472 24.87,24.399 52.51,42.903 82.91,55.399 30.4,12.617 63.09,18.863 98.05,18.863 52.52,0 98.66,-12.379 138.56,-37.246 39.77,-24.879 69.69,-60.09 89.88,-105.625 h -87.36 c -16.46,22.707 -36.65,39.891 -60.56,51.422 -23.92,11.418 -50.95,17.187 -81.24,17.187 -24.15,0 -47.22,-4.566 -68.97,-13.699 -21.87,-9.133 -41.22,-22.469 -58.04,-39.773 -17.66,-18.149 -31.36,-39.172 -41.21,-63.086 -9.86,-23.914 -14.79,-48.309 -14.79,-73.301 0,-26.676 4.45,-52.027 13.34,-75.824 8.89,-23.793 21.75,-44.457 38.46,-61.766 17.54,-18.387 37.85,-32.558 60.8,-42.6561 23.07,-10.0937 46.5,-15.1406 70.41,-15.1406 29.32,0 55.76,5.5274 79.31,16.7031 23.67,11.1716 43.02,27.2736 58.28,48.4256 h 91.57" /><path
         id="path34"
         style="fill:#231f20;fill-opacity:1;fill-rule:nonzero;stroke:none"
         d="m 2646.37,279.305 c 0,35.929 6.85,69.929 20.43,102.14 13.58,32.207 33.52,61.16 59.84,86.996 24.88,24.399 52.51,42.903 82.91,55.399 30.41,12.617 63.09,18.863 98.06,18.863 35.81,0 69.09,-6.246 99.73,-18.863 30.65,-12.496 58.64,-31.242 84,-56.121 26.08,-25.59 45.66,-54.192 58.76,-85.914 13.1,-31.723 19.7,-65.856 19.7,-102.5 0,-36.293 -5.65,-69.821 -16.94,-100.457 -11.16,-30.641 -28.11,-58.16 -50.59,-82.555 -26.55,-28.7227 -56.23,-50.2344 -88.91,-64.7696 -32.81,-14.5429 -68.26,-21.86715 -106.48,-21.86715 -38.57,0 -74.01,7.44925 -106.46,22.23045 -32.56,14.7774 -61.77,36.6446 -87.48,65.8438 -21.87,24.1605 -38.46,51.6715 -49.63,82.5545 -11.29,30.766 -16.94,63.809 -16.94,99.02 z m 77.5,-0.723 c 0,-26.676 4.45,-52.027 13.34,-75.824 8.9,-23.793 21.75,-44.457 38.46,-61.766 17.54,-18.387 37.85,-32.558 60.79,-42.6561 22.96,-10.0937 46.51,-15.1406 70.42,-15.1406 53,0 97.34,18.8677 133.03,56.4767 35.69,37.734 53.47,84.473 53.47,140.351 0,23.672 -4.32,46.387 -12.86,67.778 -8.53,21.512 -21.03,41.332 -37.48,59.355 -19.47,20.91 -40.26,36.293 -62.49,46.266 -22.11,9.973 -46.75,15.019 -73.67,15.019 -24.15,0 -47.22,-4.566 -68.97,-13.699 -21.87,-9.133 -41.22,-22.469 -58.04,-39.773 -17.67,-18.149 -31.36,-39.172 -41.22,-63.086 -9.85,-23.914 -14.78,-48.309 -14.78,-73.301" /><path
         id="path36"
         style="fill:#231f20;fill-opacity:1;fill-rule:nonzero;stroke:none"
         d="m 2320.07,167.668 h 66.57 c 1.21,-26.551 9.02,-47.703 23.56,-63.445 14.54,-15.8636 33.52,-23.7933 56.71,-23.7933 25.6,0 46.03,7.9297 61.41,23.7933 15.38,15.859 23.08,37.011 23.08,63.566 0,23.191 -5.65,41.219 -16.95,53.836 -11.18,12.738 -34.85,24.512 -70.78,35.57 -1.8,0.481 -5.04,1.321 -9.49,2.516 -42.9,11.418 -74.02,30.285 -93.25,56.602 -8.64,11.535 -15.25,23.789 -19.59,36.761 -4.32,13.11 -6.48,26.926 -6.48,41.711 0,43.977 12.98,79.43 39.05,106.578 26.08,27.043 60.21,40.617 102.5,40.617 39.18,0 70.77,-12.132 94.81,-36.406 24.16,-24.273 37.49,-57.558 40.01,-99.855 h -69.33 c -1.2,20.422 -8.05,36.886 -20.55,49.504 -12.62,12.621 -28.36,18.871 -47.46,18.871 -20.43,0 -37.01,-6.973 -49.75,-20.914 -12.86,-14.063 -19.23,-32.086 -19.23,-54.071 0,-7.812 1.2,-15.019 3.49,-21.875 2.4,-6.847 6,-13.093 10.93,-18.98 10.1,-12.02 31.72,-22.356 64.77,-31.008 15.26,-3.965 27.04,-7.445 35.21,-10.211 33.88,-12.617 59.48,-31.125 77.03,-55.273 17.42,-24.153 26.19,-53.114 26.19,-87.004 0,-49.504 -14.06,-89.4025 -42.3,-119.6838 -28.12,-30.2812 -65.48,-45.41795 -111.87,-45.41795 -43.74,0 -79.19,14.53515 -106.59,43.50005 -27.27,28.9531 -41.22,67.1717 -41.7,114.5117" /><path
         id="path38"
         style="fill:#231f20;fill-opacity:1;fill-rule:nonzero;stroke:none"
         d="m 1977.48,167.668 h 66.58 c 1.2,-26.551 9.01,-47.703 23.56,-63.445 14.53,-15.8636 33.51,-23.7933 56.71,-23.7933 25.59,0 46.02,7.9297 61.4,23.7933 15.38,15.859 23.08,37.011 23.08,63.566 0,23.191 -5.65,41.219 -16.95,53.836 -11.18,12.738 -34.85,24.512 -70.78,35.57 -1.8,0.481 -5.04,1.321 -9.49,2.516 -42.89,11.418 -74.02,30.285 -93.24,56.602 -8.65,11.535 -15.26,23.789 -19.59,36.761 -4.33,13.11 -6.49,26.926 -6.49,41.711 0,43.977 12.98,79.43 39.05,106.578 26.08,27.043 60.21,40.617 102.5,40.617 39.18,0 70.78,-12.132 94.82,-36.406 24.15,-24.273 37.49,-57.558 40,-99.855 h -69.33 c -1.2,20.422 -8.05,36.886 -20.54,49.504 -12.62,12.621 -28.37,18.871 -47.47,18.871 -20.43,0 -37.01,-6.973 -49.75,-20.914 -12.85,-14.063 -19.22,-32.086 -19.22,-54.071 0,-7.812 1.19,-15.019 3.48,-21.875 2.4,-6.847 6,-13.093 10.93,-18.98 10.1,-12.02 31.72,-22.356 64.78,-31.008 15.25,-3.965 27.03,-7.445 35.2,-10.211 33.89,-12.617 59.48,-31.125 77.03,-55.273 17.42,-24.153 26.19,-53.114 26.19,-87.004 0,-49.504 -14.05,-89.4025 -42.29,-119.6838 -28.12,-30.2812 -65.49,-45.41795 -111.88,-45.41795 -43.73,0 -79.19,14.53515 -106.59,43.50005 -27.27,28.9531 -41.22,67.1717 -41.7,114.5117" /><path
         id="path40"
         style="fill:#231f20;fill-opacity:1;fill-rule:nonzero;stroke:none"
         d="M 1639.83,169.113 1582.14,19.8672 h -78.57 l 200.31,512.6208 h 72.21 L 1976.41,19.8672 h -81.35 l -56.24,149.2458 z m 172.19,72.215 -72.22,194.668 -73.53,-194.668 z" /><path
         id="path42"
         style="fill:#231f20;fill-opacity:1;fill-rule:nonzero;stroke:none"
         d="m 735.098,532.488 h 75.707 l 111.269,-394.98 99.976,394.98 h 55.52 l 99.62,-394.98 110.9,394.98 h 75.71 L 1208.91,19.8672 h -67.29 L 1049.45,402.59 956.563,19.8672 H 890.352 L 735.098,532.488" /><path
         id="path44"
         style="fill:#231f20;fill-opacity:1;fill-rule:nonzero;stroke:none"
         d="m 236.262,279.305 c 0,35.929 6.847,69.929 20.426,102.14 13.578,32.207 33.527,61.16 59.843,86.996 24.875,24.399 52.512,42.903 82.91,55.399 30.403,12.617 63.09,18.863 98.059,18.863 35.809,0 69.094,-6.246 99.73,-18.863 30.649,-12.496 58.645,-31.242 84,-56.121 26.079,-25.59 45.661,-54.192 58.758,-85.914 13.102,-31.723 19.711,-65.856 19.711,-102.5 0,-36.293 -5.652,-69.821 -16.945,-100.457 -11.172,-30.641 -28.117,-58.16 -50.59,-82.555 C 665.605,67.5703 635.926,46.0586 603.242,31.5234 570.441,16.9805 534.988,9.65625 496.777,9.65625 c -38.57,0 -74.019,7.44925 -106.464,22.23045 -32.563,14.7774 -61.766,36.6446 -87.481,65.8438 -21.867,24.1605 -38.453,51.6715 -49.629,82.5545 -11.293,30.766 -16.941,63.809 -16.941,99.02 z m 77.504,-0.723 c 0,-26.676 4.445,-52.027 13.339,-75.824 8.895,-23.793 21.747,-44.457 38.458,-61.766 17.542,-18.387 37.851,-32.558 60.796,-42.6561 22.954,-10.0937 46.504,-15.1406 70.418,-15.1406 52.993,0 97.332,18.8677 133.024,56.4767 35.687,37.734 53.472,84.473 53.472,140.351 0,23.672 -4.328,46.387 -12.855,67.778 -8.531,21.512 -21.027,41.332 -37.496,59.355 -19.461,20.91 -40.25,36.293 -62.481,46.266 -22.117,9.973 -46.75,15.019 -73.664,15.019 -24.152,0 -47.226,-4.566 -68.972,-13.699 -21.871,-9.133 -41.219,-22.469 -58.047,-39.773 -17.66,-18.149 -31.36,-39.172 -41.211,-63.086 -9.852,-23.914 -14.781,-48.309 -14.781,-73.301" /><path
         id="path46"
         style="fill:#231f20;fill-opacity:1;fill-rule:nonzero;stroke:none"
         d="M 248.047,19.8672 H 5.79297 V 532.488 H 80.0547 V 90.6445 H 248.047 V 19.8672" /></g></g></svg>