<?xml version="1.0" encoding="utf-8"?>
<!-- Generator: Adobe Illustrator 16.0.4, SVG Export Plug-In . SVG Version: 6.00 Build 0)  -->
<!DOCTYPE svg PUBLIC "-//W3C//DTD SVG 1.1//EN" "http://www.w3.org/Graphics/SVG/1.1/DTD/svg11.dtd">
<svg version="1.1" id="Layer_1" xmlns="http://www.w3.org/2000/svg" xmlns:xlink="http://www.w3.org/1999/xlink" x="0px" y="0px"
	 width="1920px" height="1792px" viewBox="-128 0 1920 1792" enable-background="new -128 0 1920 1792" xml:space="preserve">
<path d="M832,0l960,384v128h-128c0,17.333-6.833,32.333-20.5,45s-29.833,19-48.5,19H69c-18.667,0-34.833-6.333-48.5-19
	S0,529.333,0,512h-128V384L832,0z M128,640h256v768h128V640h256v768h128V640h256v768h128V640h256v768h59
	c18.667,0,34.833,6.333,48.5,19s20.5,27.667,20.5,45v64H0v-64c0-17.333,6.833-32.333,20.5-45s29.833-19,48.5-19h59V640z M1723,1600
	c18.667,0,34.833,6.333,48.5,19s20.5,27.667,20.5,45v128H-128v-128c0-17.333,6.833-32.333,20.5-45s29.833-19,48.5-19H1723z"/>
</svg>
