<?xml version="1.0" encoding="utf-8"?>
<!-- Generator: Adobe Illustrator 16.0.4, SVG Export Plug-In . SVG Version: 6.00 Build 0)  -->
<!DOCTYPE svg PUBLIC "-//W3C//DTD SVG 1.1//EN" "http://www.w3.org/Graphics/SVG/1.1/DTD/svg11.dtd">
<svg version="1.1" id="Layer_1" xmlns="http://www.w3.org/2000/svg" xmlns:xlink="http://www.w3.org/1999/xlink" x="0px" y="0px"
	 width="2048px" height="1792px" viewBox="-128 0 2048 1792" enable-background="new -128 0 2048 1792" xml:space="preserve">
<path d="M1892,11c18.667,13.333,28,31,28,53v1408c0,13.333-3.667,25.333-11,36s-17,18.333-29,23l-640,256c-16,7.333-32,7.333-48,0
	l-616-246l-616,246c-6.667,3.333-14.667,5-24,5c-12.667,0-24.667-3.667-36-11c-18.667-13.333-28-31-28-53V320
	c0-13.333,3.667-25.333,11-36s17-18.333,29-23L552,5c16-7.333,32-7.333,48,0l616,246L1832,5C1853.333-3.667,1873.333-1.667,1892,11z
	 M608,146v1270l576,230V376L608,146z M0,363v1270l544-217V146L0,363z M1792,1429V159l-544,217v1270L1792,1429z"/>
<path d="M1012.588,756.739c0-32.183-11.387-59.66-34.156-82.431c-22.771-22.771-50.248-34.157-82.431-34.157
	c-32.183,0-59.66,11.386-82.431,34.157s-34.157,50.248-34.157,82.431c0,32.184,11.386,59.66,34.157,82.431
	c22.771,22.771,50.248,34.157,82.431,34.157c32.183,0,59.66-11.386,82.431-34.157
	C1001.201,816.399,1012.588,788.922,1012.588,756.739z M1129.174,756.739c0,33.094-5.01,60.267-15.027,81.521l-165.773,352.495
	c-4.857,10.02-12.068,17.912-21.631,23.682c-9.564,5.768-19.811,8.652-30.742,8.652c-10.93,0-21.177-2.885-30.741-8.652
	c-9.563-5.77-16.623-13.662-21.177-23.682L677.855,838.259c-10.019-21.253-15.029-48.426-15.029-81.521
	c0-64.365,22.771-119.319,68.313-164.862c45.542-45.542,100.496-68.312,164.861-68.312c64.367,0,119.32,22.771,164.861,68.312
	C1106.404,637.419,1129.174,692.374,1129.174,756.739z"/>
</svg>
